<?xml version="1.0" encoding="UTF-8"?>
<svg id="Layer_1" data-name="Layer 1" xmlns="http://www.w3.org/2000/svg" viewBox="0 0 956.44 485.33">
  <defs>
    <style>
      .cls-1 {
        fill: rgba(250, 152, 34, 1);
      }
    </style>
  </defs>
  <path class="cls-1" d="M268.38,102.23c.14.16.38.18.54.04.02-.02.05-.04.06-.07,10.56-14.98,22.8-28.11,36.73-39.38,3.55-2.87,6.96-4.86,10.24-5.97,1.79-.61,5.13-.69,10.04-.26.34.03.67.13.98.28,5.07,2.59,8.79,6.63,11.15,12.12,3.71,8.61,6.06,18.32,7.05,29.11,2.93,31.72-.33,63.21-9.78,94.47-.53,1.76.86,4.55,1.24,5.89,7.61,26.2,15.69,53.19,24.25,80.98,2.47,8.02,3.96,13.52,4.47,16.49.63,3.62-.26,7.59-2.65,11.9-20.52,36.97-46.81,69.82-78.35,98.86-22.25,20.49-46.26,37.73-72.01,51.74-1.37.75-4.85,2.36-10.42,4.85-.09.04-.19.07-.29.09l-5.44.94c-.36.07-.72.07-1.08.01-5.23-.81-10.62-3.34-15.33-5.83-19.05-10.09-37.05-21.99-54-35.72-22.81-18.47-43.29-38.82-61.46-61.06-3.86-4.72-9.34-12.14-16.44-22.27-7.93-11.31-14.09-21.16-18.47-29.54-2.19-4.2-4.02-8.69-2.79-13.45,1.79-6.95,3.6-13.54,5.45-19.77,4.94-16.67,12.73-43.35,23.38-80.04.28-.98.31-2.03.09-3.03-.73-3.28-2.12-9.38-4.18-18.31-2.53-10.97-4.44-23.51-5.73-37.6-1.17-12.83-1.24-25.74-.2-38.73.17-2.22.64-4.16.8-6.38.64-9.12,3.05-17.88,7.22-26.27,4.16-8.38,13.16-11.8,22.02-9.26,2.45.7,5.3,2.3,8.56,4.81,8.77,6.77,16.45,14.28,23.03,22.55.32.4.9.46,1.29.14.07-.06.14-.13.19-.2,5.5-8.17,13.01-14.17,22.53-18,3.99-1.6,7.2-2.59,9.63-2.97,8.47-1.31,16.4-1.46,23.81-.44,8.23,1.14,16.55,2.81,24.94,5.01.76.2,1.55-.26,1.75-1.03.04-.14.05-.28.04-.43-.11-2.22-1-3.91-2.67-5.06-2.63-1.81-4.11-3.12-7.47-6.08-.22-.19-.41-.42-.57-.67-1.85-2.96-1.86-5.89-.02-8.8,1.79-2.83,4.4-2.47,7.93-2.3.4.02.8.11,1.17.26,7.34,2.93,12.29,8.17,14.84,15.72,1.35,4,1.66,8.08.91,12.24-.04.24.12.47.36.52,2.69.47,5.53,1.21,8.52,2.22,18.45,6.27,35.99,15.06,52.6,26.39.7.47,1.21.9,1.54,1.29ZM280.48,111.01c-.25.3-.21.75.09,1.01,8.07,7.01,15.35,14.22,21.83,21.62,4.95,5.65,8.88,11.06,11.77,16.22,3.09,5.49,5.07,10.96,5.94,16.4,1.77,10.94-2.86,23.42-13.18,28.38-9,4.32-20.69.7-29.69-2.1-1.09-.33-7.21-2.99-18.38-7.97-1.29-.58-7.28-3.62-17.97-9.11-15-7.71-29.31-13.99-42.93-18.83-22.35-7.93-47.28-14.1-74.78-18.52-3.65-.59-6.21-1.33-7.66-2.22-7.83-4.83-10.93-14.75-13.2-25.08-.01-.07-.02-.14-.02-.21l.16-7.5c0-.41-.13-.8-.39-1.1-3.89-4.62-7.6-8.74-11.11-12.35-6.21-6.38-11.65-11.96-19.11-16.95-.91-.61-2.2-.63-3.89-.07-.31.1-.56.32-.71.61-1.7,3.45-3.06,7.23-4.08,11.34-1.49,5.99-2.42,12.07-2.79,18.24-.41,6.74-.41,17.15-.01,31.24.11,3.93,1.01,11.65,2.7,23.16,1.55,10.63,4.41,21.83,7.13,33.12.84,3.47.73,7.02-.32,10.64-5.34,18.44-14.78,50.93-28.32,97.47-.22.75-.15,1.55.2,2.25,1.65,3.32,3.28,6.31,4.87,8.97,15.77,26.43,34.91,50.79,57.41,73.08,25.35,25.12,54.47,47.35,86.8,63.45,1.34.67,3.04,1.29,5.09,1.88.32.09.67.07.98-.05,5.06-1.96,10.57-4.7,16.53-8.22,34.73-20.5,64.92-46.35,91.61-76.36,17.14-19.27,32.04-41.19,44.39-64.27.48-.9.59-1.96.3-2.93-8.32-27.77-17.74-59.67-28.27-95.72-1.55-5.31-1.56-10.56-.01-15.73,5.33-17.84,8.52-35.92,9.57-54.24.63-11.04.35-21.62-.84-31.73-.92-7.83-2.64-15.04-5.17-21.61-.74-1.92-1.58-3.61-2.53-5.06-.42-.66-1.26-.93-1.99-.62-.79.33-1.64.83-2.57,1.5-3.39,2.44-6.54,5.04-9.43,7.81-10.17,9.73-19.51,19.79-28.02,30.16ZM143.93,79.35c-8.35,1.72-14.17,4.54-20.02,10.74-2.53,2.68-4.18,5.06-4.95,7.15-2.44,6.59-1.72,12.74.8,19.06,1.34,3.34,3.8,5.37,7.39,6.09,10.95,2.19,20.29,4.07,28.03,5.64,8.63,1.75,17.88,4.07,27.75,6.94,19.62,5.72,38.23,13,55.82,21.84,18.11,9.1,29.66,14.87,34.67,17.31,3.91,1.91,8.84,3.75,14.77,5.53,3.32,1,6.79,1.28,10.41.84.32-.04.64-.13.92-.28,5.63-2.86,6.63-9.52,4.65-15.07-1.33-3.76-2.7-6.73-4.09-8.92-5.06-7.94-11.02-15.23-17.87-21.87-7.91-7.67-14.3-13.28-19.17-16.83-13.08-9.57-27.89-17.67-44.43-24.3-7.25-2.91-13.56-5.12-18.91-6.61-8.59-2.39-16.58-4.41-23.98-6.06-6.89-1.53-14.61-2.25-23.16-2.16-2.79.03-5.66.35-8.63.96Z"/>
  <ellipse class="cls-1" cx="801.36" cy="209.85" rx="11.47" ry="12.05" transform="translate(538.86 995.55) rotate(-86.2)"/>
  <path class="cls-1" d="M399.53,311.53v-109.29c0-.2.16-.36.36-.36h20.99c.2,0,.36.16.36.36h0v89.39c0,.2.16.36.36.36h41.89c.2,0,.36.16.36.36h0v19.18c0,.2-.16.36-.36.36h-63.6c-.2,0-.36-.16-.36-.36Z"/>
  <path class="cls-1" d="M622.34,201.95c3.63,0,7.04-.05,10.25-.14.58-.01,1.11.35,1.31.9l38.2,109.05s0,.1-.05.11c-.01,0-.02,0-.04,0h-21.33c-.3,0-.57-.19-.67-.47l-8.16-23.32c-.08-.22-.29-.38-.53-.38-.95-.01-7.26-.02-18.95-.02-11.69,0-18.01.02-18.96.03-.24,0-.45.16-.53.38l-8.15,23.32c-.1.28-.37.47-.67.47l-21.33.02s-.09-.03-.1-.08c0-.01,0-.02,0-.04l38.15-109.07c.19-.55.72-.92,1.31-.91,3.21.09,6.62.14,10.24.14ZM622.27,269.52c7.15-.04,11.65-.02,13.52.06.17,0,.32-.12.33-.29,0-.04,0-.08-.02-.12l-13.86-41c-.03-.1-.08-.18-.11-.2-.04-.01-.08-.02-.12-.02s-.08,0-.11.02c-.03.02-.08.1-.11.2l-13.35,41.17c-.06.16.03.34.19.39.04.01.08.02.13.02,1.87-.11,6.37-.18,13.51-.23Z"/>
  <path class="cls-1" d="M264.55,225.55c-.36.11-.57.48-.46.84,0,.01,0,.02.01.04,2.53,7.31,2.06,14.13-1.39,20.44-3.19,5.83-9.6,9.25-15.99,8.17-6.09-1.03-10.42-4.54-12.99-10.53-.58-1.35-1.87-2.19-3.19-2.07-1.09.09-2.53-.09-4.31-.56-.39-.1-.73-.34-.97-.67-1.12-1.54-1.69-2.75-1.7-3.62-.05-3.55.88-7.01,2.79-10.37,5.07-8.91,14.83-14.39,24.68-17,1.4-.37,2.67-.58,3.8-.65,1.73-.11,2.99-.74,5.12-.91,8.59-.67,15.08-.68,19.47-.01,5.12.78,5.93,5.95,4.59,10.07-.22.67-.71,1.22-1.35,1.51-3.05,1.39-6.37,2.46-9.97,3.21-2.56.53-5.27,1.24-8.14,2.11Z"/>
  <path class="cls-1" d="M165.29,242.06l-2.9.53c-.19.03-.39,0-.55-.1-1.31-.79-2.27-.5-2.88.85-1.38,3.05-3.17,5.5-5.38,7.34-4.6,3.84-9.56,5.06-14.88,3.66-12.22-3.22-14.73-16.25-10.76-26.68.29-.77-.09-1.63-.86-1.92-.07-.03-.15-.05-.22-.07-8.3-1.79-13.2-2.9-14.69-3.33-3.7-1.07-5.37-3.15-5-6.25.23-1.87,1.03-3.47,2.4-4.8.96-.93,2.45-1.76,4.46-2.49.25-.09.5-.13.76-.14,8.29-.23,14.42-.23,18.41.02,1.72.11,4.78.76,9.18,1.94,7.97,2.14,14.39,5.83,19.26,11.08,4.13,4.45,5.99,10.16,5.58,17.11-.06.96-.52,1.94-1.38,2.94-.14.17-.34.28-.55.31Z"/>
  <path class="cls-1" d="M762.81,231.96h15.95c.31,0,.56.25.56.55v17.26c0,.23-.19.41-.42.41h-16.04c-.29,0-.53.24-.53.53h0c-.02,15.33-.01,26.37.02,33.13.01,2.93.67,6.54,2.13,8.48,2.13,2.83,7.63,2.83,10.58,2.08,1.81-.47,2.9-.73,3.27-.79.23-.04.44.12.49.35l2.95,16.47c.07.34-.16.67-.5.74h0c-1.39.28-3.47.75-6.23,1.41-5.53,1.33-11.95,1.45-16.59.75-1.06-.15-2.93-.86-5.62-2.12-5.56-2.6-7.54-7.36-9.25-12.97-.09-.3-.15-.61-.17-.92-.27-3.12-.86-6.37-.87-9.33-.08-13.41-.09-25.89-.02-37.43,0-.25-.2-.45-.45-.45h-8.55c-.23,0-.42-.19-.42-.43h0v-17.13c0-.31.26-.57.57-.57h8.46c.25,0,.46-.21.46-.46h0v-16.76c0-.36.29-.65.64-.65h18.51c.31,0,.56.25.56.56v16.77c0,.29.23.52.51.52h0Z"/>
  <path class="cls-1" d="M894.08,214.16h18.04c.47,0,.85.38.85.85v16.48c0,.27.22.49.49.49h15.87c.49,0,.89.4.89.89v16.8c0,.24-.19.43-.43.43h-16.44c-.19,0-.35.16-.35.35,0,0,0,0,0,.01.11,5.39.15,16.01.12,31.86-.01,4.55.52,10.48,5.55,12.15,3.23,1.07,6.62.79,10.19-.84.42-.19.92-.01,1.11.41.03.07.05.14.07.21l2.84,15.8c.05.26-.1.51-.34.61-9.45,3.79-22.81,5.13-31.46-1.42-2.29-1.73-4.17-4.52-5.64-8.35-1.21-3.18-1.84-7.45-1.89-12.82-.14-14.74-.12-27.21.07-37.4,0-.34-.26-.61-.6-.62,0,0,0,0-.01,0h-8.17c-.31,0-.57-.26-.57-.57v-16.99c0-.28.22-.5.5-.5h8.2c.26,0,.47-.21.47-.47v-16.71c0-.36.29-.65.64-.65h0Z"/>
  <path class="cls-1" d="M489.84,277.71c-.35,0-.64.29-.64.64,0,.03,0,.06,0,.09.77,5.57,3.4,12.43,8.39,15.43,1.95,1.17,4.61,1.86,7.98,2.05,6.88.41,12.97-1.95,18.26-7.06.51-.5,1.3-.57,1.89-.17l13.14,8.67c.18.12.23.37.1.56,0,0,0,0,0,0-5.93,8.23-13.76,13.39-23.5,15.5-3.81.82-8.66.9-14.53.23-12.45-1.42-22.68-9.56-27.9-20.73-1.82-3.92-3.02-8.71-3.59-14.36-.54-5.28-.47-10.22.21-14.82,2.07-14.13,9.48-25.67,23.45-31.18.75-.29,2.38-.66,4.89-1.09,2.43-.42,4.08-.67,4.97-.76,3.37-.33,7.21-.06,11.51.82,21.91,4.48,27.32,26.3,25.67,45.47-.04.4-.37.7-.77.7h-49.54ZM490.79,263.6l29.98-.06c.12,0,.21-.09.21-.21h0v-.65c-.02-8.5-6.83-15.38-15.22-15.37h0c-8.39.01-15.19,6.91-15.18,15.42h0v.66c0,.12.09.21.21.21h0Z"/>
  <path class="cls-1" d="M702.45,241.51c0,.34.26.63.6.64.23,0,.44-.12.56-.32,3.21-5.39,7.51-8.81,12.89-10.24,3.15-.83,6.23-1.16,9.24-.97.41.03.73.37.73.78v20.94c0,.22-.18.4-.4.4-.01,0-.03,0-.04,0-9.74-1.13-18.16,1.72-21.47,11.52-.15.45-.25.92-.29,1.4-.1,1.25-.34,2.43-.71,3.54-.21.6-.31,1.22-.31,1.86v40.37c0,.27-.22.49-.49.49h-19.45c-.28,0-.5-.22-.5-.49v-78.7c0-.47.38-.85.85-.85h18.15c.35,0,.64.29.64.65v8.98Z"/>
  <path class="cls-1" d="M832.05,288.15c.37.31,1.11.96,2.22,1.93,5.67,4.99,12.39,6.97,20.17,5.96,2.56-.34,5.56-1.57,6.72-4.06,1.09-2.31.92-4.52-.5-6.61-.09-.14-.21-.26-.36-.35l-3.55-2.18c-.26-.16-.54-.29-.84-.38-6.39-1.98-11.45-3.69-15.2-5.13-7.99-3.07-14.69-8.13-16.17-17.03-.45-2.67-.54-5.54-.27-8.63.73-8.68,6.03-15.44,14.16-18.87,2.23-.94,4.99-1.63,8.29-2.07,4.61-.62,10.01-.29,16.21,1,5.76,1.19,11.02,3.83,15.77,7.92.46.39.53,1.07.18,1.56l-9.64,13.14c-.23.31-.67.38-.98.15-.02-.02-.04-.03-.06-.05-6.51-5.94-14.89-9.29-23.19-4.63-.4.23-.73.57-.94.98-3.41,6.63,2.43,9.06,7.41,10.73.63.21,5.02,1.59,13.17,4.12,2.07.65,4.41,1.8,7.02,3.46,8.77,5.58,11.18,14.91,9.36,24.84-1.64,8.93-8.4,15.42-16.93,18.07-3.99,1.23-7.65,1.89-11,1.96-12.93.29-25.3-2.72-33.64-12.85-.31-.38-.28-.92.06-1.27l11.68-11.67c.23-.23.6-.25.85-.04Z"/>
  <rect class="cls-1" x="791.27" y="231.98" width="19.94" height="79.94" rx=".31" ry=".31"/>
  <path class="cls-1" d="M267.21,296.39c-.1-.03-.16-.13-.14-.23,0-.02.01-.04.03-.06,5.64-7.49,17.97-6.65,25.15-2.07,12.1,7.73,13.06,24.77,8.62,37.05-2.59,7.17-7.1,13.37-13.52,18.62-8.73,7.13-19.53,10.6-32.39,10.42-10.97-.15-20.86-2.54-29.69-7.17-11.66-6.12-20.87-13.99-27.63-23.61-.27-.39-.47-.87-.6-1.46-.08-.42-.5-.7-.92-.61-.23.05-.42.19-.53.39-3.87,7.04-8.88,12.16-15.24,17.55-5.45,4.63-11.25,8.31-17.38,11.06-.24.11-.49.18-.74.23-2.04.41-3.98,1.53-6.17,2.13-14.37,3.97-31.83,3.47-44.68-3.97-11.23-6.5-18.54-16.43-21.93-29.79-1.95-7.72-1.14-17.16,3.35-23.97,5.61-8.52,13.62-11.8,24.02-9.84,3.04.57,5.5,1.93,7.38,4.07.23.26.2.65-.06.87-.06.05-.12.09-.19.12-1.7.6-3.99,1.47-6.86,2.6-7.14,2.82-9.94,11.53-8.71,18.54,1.53,8.73,6.26,15.25,14.17,19.57,7.65,4.17,15.85,5.03,24.73,3.59,9.74-1.57,19.91-6.94,26.84-14.48,3.59-3.9,6.98-7.7,8.97-12.67,2.16-5.42,1.8-10.85-3.98-13.71-2.18-1.08-5.28-1.18-8.09-1.77-1.44-.29-2.48-.65-3.13-1.08-4.55-3.01-3.02-10.22.19-13.73,3.41-3.73,7.41-6.31,12-7.76,10.39-3.29,20.83-3.17,31.31.36,2.49.84,4.81,2.02,6.98,3.54,4.93,3.44,8.03,6.49,8.13,12.44.14,8.15-8.36,5.75-13.66,7.69-5.53,2.03-7.01,8.26-4.6,13.33,2.25,4.73,5.82,8.61,9.44,12.09,9.81,9.39,21.03,14.65,33.66,15.76,2.75.24,6.13-.07,10.13-.94,7.84-1.7,13.94-5.81,18.3-12.33,5.43-8.12,5.04-21.29-4.07-27-2.91-1.82-5.74-3.08-8.49-3.77Z"/>
  <path class="cls-1" d="M219.77,365.97c2.93-1.24,6.46-1,8.36,1.87.75,1.13.83,2.65.25,4.56-.93,3.11-2.93,5.8-5.99,8.08-7.49,5.57-15.63,8.35-24.42,8.33-4.19-.01-7.93-.19-11.23-.52-2.91-.29-6.67-1.61-11.26-3.94-5.43-2.75-9.08-6.13-10.97-10.12-1.27-2.66-.95-5.28.95-7.87.35-.49.91-.78,1.52-.81,2.77-.11,4.58.06,5.43.5,6.63,3.46,11.52,5.49,14.65,6.09,5.81,1.11,12.15.91,19.02-.6,4.23-.93,8.59-3.41,13.69-5.57Z"/>
</svg>